<?xml version="1.0" encoding="utf-8"?>
<svg xmlns="http://www.w3.org/2000/svg" viewBox="0 0 500 500">
  <path d="M 495.505 385.27 C 499.476 396.664 498.523 408.798 493.228 419.349 C 489.416 427.051 483.963 433.012 477.292 438.34 C 469.244 444.67 459.237 450.051 447.166 455.221 C 432.765 461.341 415.187 467.091 407.139 469.201 C 386.543 474.529 366.742 477.905 346.675 478.064 C 317.979 478.327 293.253 471.575 275.675 454.324 C 266.569 455.432 257.356 456.065 248.091 456.065 C 239.302 456.065 230.619 455.538 221.989 454.483 C 204.358 471.628 179.738 478.327 151.147 478.064 C 131.081 477.905 111.279 474.529 90.63 469.201 C 82.636 467.091 65.058 461.341 50.657 455.221 C 38.585 450.051 28.578 444.67 20.583 438.34 C 13.859 433.012 8.406 427.051 4.594 419.349 C -0.648 408.798 -1.654 396.664 2.37 385.27 C -1.336 376.565 -2.289 366.595 0.623 355.569 C 1.947 350.558 4.117 345.915 6.871 341.8 C 6.288 339.638 5.812 337.422 5.494 334.995 C 3.482 320.541 8.512 307.352 17.989 297.118 C 22.648 292.001 27.678 288.466 32.92 286.198 C 29.055 269.844 27.043 253.016 27.043 235.818 C 27.043 114.168 125.998 15.571 248.091 15.571 C 290.024 15.571 329.256 27.177 362.718 47.434 C 368.753 51.127 374.683 55.084 380.349 59.304 C 383.155 61.414 385.961 63.577 388.661 65.845 C 391.414 68.061 394.114 70.382 396.709 72.756 C 404.545 79.878 411.904 87.527 418.628 95.704 C 420.905 98.395 423.076 101.19 425.193 104.039 C 429.482 109.684 433.453 115.54 437.106 121.606 C 442.665 130.68 447.536 140.175 451.772 150.04 C 454.578 156.635 457.014 163.387 459.184 170.298 C 462.414 180.638 464.903 191.294 466.597 202.267 C 467.126 205.907 467.603 209.599 467.973 213.292 C 468.715 220.678 469.138 228.169 469.138 235.818 C 469.138 252.805 467.126 269.475 463.367 285.565 C 469.191 287.833 474.697 291.526 479.833 297.118 C 489.31 307.352 494.34 320.593 492.328 335.048 C 492.011 337.422 491.534 339.638 490.952 341.8 C 493.705 345.915 495.876 350.558 497.199 355.569 C 500.111 366.595 499.158 376.565 495.505 385.27 Z" style="stroke-width: 1; fill: rgb(2, 132, 199);"/>
  <path d="M 432.752 237.321 C 432.752 136.409 350.444 54.603 248.913 54.603 C 147.382 54.603 65.074 136.409 65.074 237.321 C 65.074 338.233 147.382 420.039 248.913 420.039 C 350.444 420.039 432.752 338.233 432.752 237.321 Z M 43.913 237.321 C 43.913 124.793 135.695 33.571 248.913 33.571 C 362.131 33.571 453.913 124.793 453.913 237.321 C 453.913 349.849 362.131 441.071 248.913 441.071 C 135.695 441.071 43.913 349.849 43.913 237.321 Z" fill="black" style="stroke-width: 1;"/>
  <path d="M 65 250 C 65 148.518 147.827 66.25 250 66.25 C 352.173 66.25 435 148.518 435 250 C 435 351.482 352.173 433.75 250 433.75 C 147.827 433.75 65 351.482 65 250 Z" style="stroke-width: 1; paint-order: fill; fill: rgb(2, 132, 199);"/>
  <path d="M 201.111 419.745 C 215.702 398.689 214.668 382.887 194.648 363.198 C 174.628 343.514 162.975 314.716 162.975 314.716 C 162.975 314.716 158.622 297.99 148.707 299.529 C 138.793 301.068 131.513 326.063 152.281 341.354 C 173.048 356.64 148.145 367.027 140.155 352.67 C 132.165 338.312 110.348 301.402 99.034 294.343 C 87.724 287.284 79.761 291.239 82.428 305.789 C 85.095 320.34 132.393 355.607 127.791 363.239 C 123.189 370.867 106.971 354.271 106.971 354.271 C 106.971 354.271 56.221 308.826 45.171 320.668 C 34.122 332.511 53.554 342.434 81.245 358.93 C 108.943 375.421 111.09 379.777 107.161 386.017 C 103.227 392.256 42.096 341.542 36.354 363.041 C 30.618 384.54 98.742 390.78 94.537 405.622 C 90.333 420.47 46.55 377.529 37.595 394.26 C 28.635 410.996 99.378 430.659 99.951 430.805 C 122.802 436.638 180.837 448.997 201.111 419.745 Z" style="stroke-width: 1; fill: rgb(2, 132, 199);"/>
  <path d="M 89.906 270.571 C 81.387 270.571 73.773 274.048 68.464 280.355 C 65.18 284.261 61.749 290.557 61.47 299.985 C 57.898 298.965 54.462 298.395 51.252 298.395 C 43.096 298.395 35.729 301.501 30.52 307.144 C 23.826 314.386 20.853 323.286 22.148 332.191 C 22.763 336.432 24.189 340.234 26.321 343.753 C 21.827 347.366 18.517 352.397 16.917 358.447 C 15.665 363.19 14.381 373.068 21.085 383.244 C 20.659 383.908 20.259 384.598 19.885 385.304 C 15.854 392.907 15.597 401.498 19.154 409.499 C 24.547 421.625 37.949 431.179 63.975 441.434 C 80.166 447.813 94.979 451.892 95.11 451.928 C 116.516 457.445 135.875 460.248 152.634 460.248 C 183.438 460.248 205.491 450.872 218.183 432.382 C 238.61 402.607 235.689 375.374 209.259 349.123 C 194.63 334.597 184.906 313.178 182.88 308.477 C 178.797 294.557 167.999 279.084 150.051 279.084 L 150.046 279.084 C 148.535 279.084 147.009 279.204 145.505 279.44 C 137.643 280.668 130.771 285.166 125.862 291.932 C 120.563 285.385 115.417 280.177 110.76 277.238 C 103.74 272.814 96.726 270.571 89.906 270.571 Z M 89.906 291.488 C 92.59 291.488 95.868 292.622 99.483 294.902 C 110.707 301.977 132.365 338.974 140.295 353.364 C 142.952 358.185 147.494 360.225 151.582 360.225 C 159.696 360.225 166.031 352.209 152.324 342.022 C 131.713 326.695 138.943 301.643 148.783 300.1 C 149.214 300.032 149.64 300.001 150.051 300.001 C 158.996 300.001 162.943 315.322 162.943 315.322 C 162.943 315.322 174.508 344.187 194.378 363.917 C 214.247 383.651 215.273 399.49 200.792 420.595 C 190.915 434.986 172.009 436.863 152.634 436.863 C 132.539 436.863 111.903 433.343 100.358 430.367 C 99.79 430.221 29.615 411.826 38.507 395.051 C 40.002 392.232 42.464 391.103 45.564 391.103 C 58.087 391.103 80.866 409.625 90.659 409.625 C 92.848 409.625 94.479 407.942 95.11 405.683 C 99.468 390.093 31.577 385.309 37.276 363.76 C 38.281 359.948 41.007 358.4 44.837 358.405 C 61.386 358.405 98.515 387.327 106.298 387.327 C 106.892 387.327 107.318 387.155 107.55 386.789 C 111.449 380.535 109.653 375.443 82.17 358.914 C 54.686 342.379 35.055 333.159 46.027 321.289 C 47.289 319.918 49.079 319.312 51.252 319.312 C 67.937 319.317 107.36 354.969 107.36 354.969 C 107.36 354.969 118 365.966 124.436 365.966 C 125.914 365.966 127.172 365.386 128.024 363.953 C 132.586 356.308 85.649 320.959 83.002 306.375 C 81.208 296.492 84.26 291.488 89.906 291.488 Z" style="stroke-width: 1;" fill="black"/>
  <path d="M 295.813 419.745 C 281.223 398.689 282.256 382.887 302.276 363.198 C 322.296 343.514 333.95 314.716 333.95 314.716 C 333.95 314.716 338.303 297.99 348.217 299.529 C 358.132 301.068 365.411 326.063 344.644 341.354 C 323.876 356.64 348.779 367.027 356.769 352.67 C 364.759 338.312 386.576 301.402 397.891 294.343 C 409.2 287.284 417.163 291.239 414.496 305.789 C 411.829 320.34 364.531 355.607 369.133 363.239 C 373.735 370.867 389.954 354.271 389.954 354.271 C 389.954 354.271 440.704 308.826 451.753 320.668 C 462.802 332.511 443.37 342.434 415.679 358.93 C 387.981 375.421 385.834 379.777 389.763 386.017 C 393.697 392.256 454.828 341.542 460.57 363.041 C 466.306 384.54 398.182 390.78 402.387 405.622 C 406.591 420.47 450.374 377.529 459.329 394.26 C 468.289 410.996 397.546 430.659 396.973 430.805 C 374.122 436.638 316.088 448.997 295.813 419.745 Z" style="stroke-width: 1; fill: rgb(2, 132, 199);"/>
  <path d="M 407.018 270.571 C 415.537 270.571 423.151 274.048 428.46 280.355 C 431.744 284.261 435.175 290.557 435.454 299.985 C 439.026 298.965 442.462 298.395 445.672 298.395 C 453.828 298.395 461.195 301.501 466.404 307.144 C 473.098 314.386 476.071 323.286 474.776 332.191 C 474.161 336.432 472.735 340.234 470.603 343.753 C 475.097 347.366 478.407 352.397 480.007 358.447 C 481.259 363.19 482.543 373.068 475.839 383.244 C 476.265 383.908 476.665 384.598 477.039 385.304 C 481.07 392.907 481.327 401.498 477.77 409.499 C 472.377 421.625 458.975 431.179 432.949 441.434 C 416.758 447.813 401.945 451.892 401.814 451.928 C 380.408 457.445 361.049 460.248 344.29 460.248 C 313.486 460.248 291.433 450.872 278.742 432.382 C 258.315 402.607 261.235 375.374 287.666 349.123 C 302.294 334.597 312.018 313.178 314.044 308.477 C 318.127 294.557 328.925 279.084 346.874 279.084 L 346.879 279.084 C 348.389 279.084 349.915 279.204 351.42 279.44 C 359.281 280.668 366.153 285.166 371.063 291.932 C 376.362 285.385 381.508 280.177 386.165 277.238 C 393.184 272.814 400.198 270.571 407.018 270.571 Z M 407.018 291.488 C 404.334 291.488 401.056 292.622 397.441 294.902 C 386.217 301.977 364.559 338.974 356.629 353.364 C 353.972 358.185 349.431 360.225 345.342 360.225 C 337.228 360.225 330.893 352.209 344.6 342.022 C 365.212 326.695 357.982 301.643 348.142 300.1 C 347.71 300.032 347.284 300.001 346.874 300.001 C 337.928 300.001 333.982 315.322 333.982 315.322 C 333.982 315.322 322.416 344.187 302.547 363.917 C 282.677 383.651 281.651 399.49 296.132 420.595 C 306.009 434.986 324.915 436.863 344.29 436.863 C 364.385 436.863 385.021 433.343 396.566 430.367 C 397.134 430.221 467.31 411.826 458.417 395.051 C 456.922 392.232 454.46 391.103 451.36 391.103 C 438.837 391.103 416.058 409.625 406.265 409.625 C 404.076 409.625 402.445 407.942 401.814 405.683 C 397.456 390.093 465.347 385.309 459.648 363.76 C 458.643 359.948 455.917 358.4 452.087 358.405 C 435.538 358.405 398.409 387.327 390.627 387.327 C 390.032 387.327 389.606 387.155 389.374 386.789 C 385.475 380.535 387.271 375.443 414.754 358.914 C 442.238 342.379 461.869 333.159 450.897 321.289 C 449.635 319.918 447.845 319.312 445.672 319.312 C 428.987 319.317 389.564 354.969 389.564 354.969 C 389.564 354.969 378.924 365.966 372.489 365.966 C 371.01 365.966 369.753 365.386 368.9 363.953 C 364.338 356.308 411.275 320.959 413.922 306.375 C 415.716 296.492 412.664 291.488 407.018 291.488 Z" fill="black" style="stroke-width: 1;"/>
  <path d="M 318.19 244.472 C 318.19 220.807 287.498 256.875 249.55 257.036 C 211.605 256.877 180.913 220.809 180.913 244.472 C 180.913 260.162 188.42 285.68 208.582 301.162 C 212.594 287.358 234.639 276.3 237.79 277.888 C 242.277 280.149 242.025 286.415 249.55 291.936 C 257.076 286.415 256.824 280.151 261.311 277.888 C 264.464 276.3 286.507 287.358 290.518 301.162 C 310.68 285.68 318.188 260.162 318.188 244.474 L 318.19 244.472 Z" fill="#0E1116" style="stroke-width: 1;"/>
  <path d="M 261.313 277.886 C 256.826 280.147 257.078 286.413 249.552 291.934 C 242.027 286.413 242.279 280.149 237.792 277.886 C 234.639 276.298 212.596 287.356 208.585 301.16 C 218.779 308.988 232.21 314.249 249.54 314.377 C 249.544 314.377 249.548 314.377 249.554 314.377 C 249.559 314.377 249.563 314.377 249.569 314.377 C 266.899 314.251 280.33 308.988 290.524 301.16 C 286.513 287.356 264.468 276.298 261.317 277.886 L 261.313 277.886 Z" fill="#FF323D" style="stroke-width: 1;"/>
  <path d="M 371.913 211.571 C 381.302 211.571 388.913 203.96 388.913 194.571 C 388.913 185.182 381.302 177.571 371.913 177.571 C 362.524 177.571 354.913 185.182 354.913 194.571 C 354.913 203.96 362.524 211.571 371.913 211.571 Z" fill="black" style="stroke-width: 1;"/>
  <path d="M 126.913 211.571 C 136.302 211.571 143.913 203.96 143.913 194.571 C 143.913 185.182 136.302 177.571 126.913 177.571 C 117.524 177.571 109.913 185.182 109.913 194.571 C 109.913 203.96 117.524 211.571 126.913 211.571 Z" fill="black" style="stroke-width: 1;"/>
  <path d="M 311.973 187.167 C 318.709 189.539 321.389 203.35 328.194 199.742 C 341.08 192.908 345.973 176.948 339.121 164.095 C 332.269 151.242 316.267 146.363 303.38 153.197 C 290.493 160.031 285.601 175.99 292.453 188.843 C 295.687 194.91 305.952 185.046 311.973 187.167 Z" fill="#0E1116" style="stroke-width: 1;"/>
  <path d="M 187.467 187.167 C 180.731 189.539 178.051 203.35 171.247 199.742 C 158.36 192.908 153.468 176.948 160.32 164.095 C 167.172 151.242 183.173 146.363 196.06 153.197 C 208.947 160.031 213.839 175.99 206.987 188.843 C 203.753 194.91 193.488 185.046 187.467 187.167 Z" fill="#0E1116" style="stroke-width: 1;"/>
</svg>